<svg xmlns="http://www.w3.org/2000/svg" width="500" height="500" viewBox="0 0 500 500">
<g>
<path d="M 411.50 467.61 L 406.50 469.98 L 252.00 469.94 L 97.50 469.89 L 92.55 467.44 C85.93,464.16 82.23,460.52 79.38,454.50 L 77.02 449.50 L 77.01 328.21 C77.01,318.50 77.01,309.54 77.00,301.27 C76.96,213.27 76.96,203.87 80.92,201.70 C81.77,201.23 82.79,201.10 84.04,200.60 C87.52,199.21 87.86,198.77 87.08,196.77 C86.60,195.52 84.07,189.32 81.46,183.00 C78.85,176.68 76.35,169.95 75.92,168.07 C74.95,163.86 76.84,158.80 80.17,156.66 C81.45,155.83 100.95,147.51 123.50,138.16 C146.05,128.81 182.05,113.86 203.50,104.93 C224.95,95.99 253.75,84.11 267.50,78.51 C281.25,72.91 303.52,63.70 317.00,58.04 C370.16,35.72 387.06,29.00 390.02,29.00 C396.72,29.00 398.29,30.85 405.02,46.71 C408.47,54.84 411.50,63.57 411.76,66.11 C412.17,70.12 411.86,71.12 409.36,73.86 C406.25,77.29 400.59,79.78 337.00,105.79 C326.27,110.18 305.12,118.93 290.00,125.24 C274.88,131.55 251.25,141.34 237.50,146.99 C223.75,152.64 202.51,161.48 190.30,166.63 C178.08,171.78 167.89,176.00 167.64,176.00 C167.39,176.00 164.14,177.37 160.41,179.04 L 153.63 182.08 L 171.46 200.00 L 421.82 200.00 L 424.41 203.08 C425.84,204.77 427.24,207.13 427.53,208.33 C427.83,209.52 427.94,264.27 427.78,330.00 C427.52,442.55 427.40,449.73 425.70,453.50 C423.20,459.06 417.42,464.80 411.50,467.61 ZM 99.03 462.26 C103.74,463.15 400.50,462.95 404.32,462.07 C409.92,460.77 415.37,456.55 417.83,451.62 L 420.00 447.28 L 420.00 252.00 L 84.00 252.00 L 84.00 349.68 C84.00,445.50 84.04,447.45 86.01,451.52 C88.14,455.93 94.88,461.49 99.03,462.26 ZM 306.81 429.37 C302.37,430.81 294.42,431.00 240.14,430.97 C183.25,430.94 178.10,430.79 173.25,429.12 C166.11,426.65 161.84,422.91 157.74,415.50 C154.58,409.80 154.56,396.32 157.69,390.43 C161.22,383.81 166.99,379.25 175.12,376.67 C176.19,376.34 176.99,374.48 177.43,371.33 C181.85,339.98 197.98,304.47 214.08,290.65 C231.71,275.51 252.82,271.35 273.21,278.98 C284.63,283.25 303.19,297.86 311.83,309.37 C313.89,312.13 314.12,312.19 317.24,310.89 C322.28,308.78 331.76,309.20 336.62,311.75 C353.01,320.34 353.03,343.62 336.65,352.25 C331.54,354.94 321.11,355.21 316.50,352.76 C308.72,348.64 303.76,340.77 303.64,332.37 L 303.57 327.13 L 299.34 326.06 C293.33,324.55 288.40,324.75 286.57,326.57 C282.56,330.58 285.42,341.88 295.54,362.07 L 301.98 374.93 L 309.41 378.36 C321.28,383.85 325.59,391.30 324.79,405.00 C324.44,411.04 323.76,413.73 321.67,417.29 C318.22,423.19 313.12,427.33 306.81,429.37 ZM 185.63 375.22 C186.28,376.26 293.00,376.23 293.00,375.18 C293.00,374.74 290.62,369.67 287.71,363.93 C277.97,344.73 274.77,330.58 278.68,323.96 C281.59,319.04 285.42,317.71 295.03,318.29 C299.69,318.57 304.38,318.96 305.46,319.15 C306.70,319.37 307.55,318.86 307.78,317.77 C308.25,315.50 290.57,297.84 282.51,292.52 C271.84,285.49 265.88,283.58 254.50,283.54 C245.97,283.51 243.38,283.91 236.89,286.30 C213.40,294.95 194.52,325.25 186.54,367.13 C185.78,371.15 185.37,374.79 185.63,375.22 ZM 174.46 421.12 C178.24,422.84 182.53,422.96 241.09,422.98 L 303.69 423.00 L 308.09 420.71 C313.65,417.83 318.01,410.05 317.98,403.07 C317.94,395.12 313.18,387.53 306.68,385.07 C304.80,384.35 282.93,384.00 240.40,384.00 C178.69,384.00 176.81,384.06 172.96,386.02 C167.78,388.67 163.83,394.70 163.23,400.91 C162.38,409.78 166.73,417.61 174.46,421.12 ZM 106.92 227.08 L 109.85 230.00 L 171.15 230.00 L 174.08 227.08 C176.28,224.88 177.00,223.22 177.00,220.37 C177.00,216.74 175.78,215.36 148.75,188.22 C133.21,172.62 119.23,159.19 117.69,158.37 C114.12,156.49 108.96,157.96 106.02,161.71 C104.10,164.15 104.00,165.71 104.00,194.21 L 104.00 224.15 ZM 135.61 164.07 C142.14,170.63 147.59,176.00 147.73,176.00 C147.87,176.00 153.95,173.49 161.24,170.42 C183.93,160.87 190.36,158.19 194.60,156.52 L 198.70 154.90 L 199.27 135.21 C199.58,124.37 199.66,115.32 199.43,115.09 C198.95,114.62 189.61,118.29 169.00,127.04 C151.70,134.38 132.87,142.23 124.25,145.69 C120.81,147.07 118.00,148.55 118.00,148.98 C118.00,149.41 119.29,150.29 120.87,150.95 C122.45,151.60 129.08,157.51 135.61,164.07 ZM 84.00 226.70 L 84.00 244.00 L 195.97 244.00 L 197.38 240.75 C198.16,238.96 200.89,232.77 203.46,227.00 C206.02,221.23 208.99,214.36 210.05,211.75 L 211.97 207.00 L 178.90 207.00 L 181.54 210.46 C186.33,216.75 185.80,225.52 180.21,232.16 C175.48,237.78 174.00,238.00 140.50,238.00 C107.27,238.00 105.82,237.79 100.89,232.37 C97.23,228.35 96.00,223.94 96.00,214.85 L 96.00 207.00 L 91.20 207.00 C88.56,207.00 85.86,207.54 85.20,208.20 C84.36,209.04 84.00,214.58 84.00,226.70 ZM 377.30 242.25 C376.80,243.88 378.26,244.00 398.38,244.00 L 420.00 244.00 L 420.00 226.11 C420.00,210.71 419.78,208.13 418.42,207.61 C417.55,207.27 411.33,207.00 404.60,207.00 L 392.36 207.00 L 385.10 223.75 C381.11,232.96 377.60,241.29 377.30,242.25 ZM 366.00 65.20 C366.00,76.09 366.25,85.00 366.56,85.00 C366.86,85.00 375.41,81.56 385.56,77.36 C402.22,70.45 404.00,69.48 404.00,67.32 C404.00,63.28 392.92,37.11 390.94,36.48 C389.97,36.17 383.96,38.05 377.59,40.66 L 366.00 45.39 ZM 334.60 98.26 C335.31,98.97 335.73,98.82 348.00,93.50 L 357.50 89.37 L 358.14 80.44 C358.50,75.52 358.84,66.39 358.89,60.14 C358.99,49.73 358.85,48.84 357.25,49.41 C356.29,49.75 350.95,51.92 345.39,54.24 L 335.29 58.44 L 334.65 70.97 C333.84,86.73 333.82,97.49 334.60,98.26 ZM 207.34 139.75 C206.85,148.27 206.99,151.00 207.91,151.00 C209.42,151.00 229.07,143.06 230.67,141.80 C232.02,140.74 232.61,102.00 231.28,102.00 C230.41,102.00 215.12,107.98 210.75,110.03 C208.06,111.29 208.00,111.52 208.00,119.91 C207.99,124.63 207.70,133.56 207.34,139.75 ZM 274.44 242.25 C273.84,243.86 274.82,244.00 286.72,244.00 L 299.65 244.00 L 302.25 237.75 C303.68,234.31 307.33,225.99 310.35,219.25 L 315.84 207.00 L 289.49 207.00 L 282.30 223.75 C278.34,232.96 274.81,241.29 274.44,242.25 ZM 205.00 243.77 C205.00,243.93 210.89,243.93 218.09,243.78 L 231.19 243.50 L 236.15 232.00 C238.89,225.68 242.43,217.45 244.03,213.72 L 246.94 206.94 L 233.91 207.22 L 220.89 207.50 L 212.95 225.49 C208.58,235.39 205.00,243.61 205.00,243.77 ZM 271.23 104.84 C271.08,115.93 271.31,124.97 271.73,124.92 C272.15,124.88 277.45,122.73 283.50,120.13 L 294.50 115.42 L 294.77 95.21 C294.92,84.09 294.91,75.00 294.74,75.00 C294.57,75.00 289.28,77.18 282.97,79.84 L 271.50 84.68 ZM 239.57 137.24 C240.05,137.72 259.18,130.24 262.10,128.44 C262.60,128.13 263.00,118.94 263.00,108.00 L 263.00 88.12 L 252.30 92.61 C246.41,95.07 241.01,97.58 240.30,98.17 C239.32,98.98 239.00,103.85 239.00,117.96 C239.00,128.25 239.26,136.92 239.57,137.24 ZM 343.00 243.13 C343.00,243.67 348.33,243.94 355.64,243.78 L 368.29 243.50 L 375.72 226.50 C379.80,217.15 383.39,208.94 383.68,208.25 C384.09,207.29 381.24,207.00 371.25,207.00 L 358.28 207.00 L 350.64 224.60 C346.44,234.28 343.00,242.62 343.00,243.13 ZM 309.69 239.75 L 308.02 244.00 L 320.94 244.00 C333.47,244.00 333.89,243.93 334.57,241.75 C334.96,240.51 338.37,232.45 342.14,223.83 C345.91,215.21 349.00,207.89 349.00,207.55 C349.00,207.21 343.31,207.07 336.36,207.22 L 323.72 207.50 L 317.54 221.50 C314.14,229.20 310.61,237.41 309.69,239.75 ZM 240.28 241.75 C239.77,243.99 239.81,244.00 252.38,244.00 C259.32,244.00 265.00,243.86 265.00,243.69 C265.00,243.53 268.38,235.59 272.50,226.07 C276.62,216.54 280.00,208.34 280.00,207.84 C280.00,207.34 274.43,207.06 267.41,207.22 L 254.81 207.50 L 252.52 213.00 C251.26,216.02 248.10,223.23 245.51,229.00 C242.92,234.77 240.56,240.51 240.28,241.75 ZM 302.35 105.75 C301.86,109.87 302.02,111.00 303.11,110.99 C303.87,110.99 309.23,109.04 315.00,106.65 L 325.50 102.32 L 326.07 82.41 C326.38,71.46 326.55,62.37 326.45,62.22 C326.35,62.06 321.03,64.05 314.63,66.64 L 303.00 71.34 L 302.99 85.92 C302.99,93.94 302.70,102.86 302.35,105.75 ZM 319.41 345.17 C324.36,348.28 332.08,347.28 336.55,342.95 C343.17,336.54 343.21,327.50 336.64,321.14 C330.55,315.23 320.95,315.88 315.05,322.60 C312.40,325.62 312.00,326.83 312.00,331.90 C312.00,338.36 313.84,341.67 319.41,345.17 ZM 94.58 195.07 C95.17,195.99 95.68,190.22 96.00,179.00 C96.33,167.43 96.94,160.74 97.79,159.25 C99.44,156.35 98.43,156.36 90.57,159.37 C81.19,162.97 81.16,163.19 87.88,179.57 C91.06,187.31 94.07,194.28 94.58,195.07 ZM 166.23 218.60 C163.65,222.46 157.82,221.89 155.85,217.57 C153.31,212.00 161.19,207.24 165.35,211.83 C167.08,213.75 167.48,216.74 166.23,218.60 ZM 118.43 174.67 C112.41,179.07 105.73,171.27 111.00,166.00 C113.47,163.53 115.14,163.48 118.01,165.81 C120.76,168.04 120.99,172.80 118.43,174.67 ZM 119.00 219.50 C116.10,223.00 109.00,220.04 109.00,215.33 C109.00,210.91 116.22,208.15 119.00,211.50 C119.69,212.33 120.25,214.13 120.25,215.50 C120.25,216.87 119.69,218.67 119.00,219.50 Z" fill="rgb(3,3,4)"/>
<path d="M 99.03 462.26 C94.88,461.49 88.14,455.93 86.01,451.52 C84.04,447.45 84.00,445.50 84.00,349.68 L 84.00 252.00 L 420.00 252.00 L 420.00 447.28 L 417.83 451.62 C415.37,456.55 409.92,460.77 404.32,462.07 C400.50,462.95 103.74,463.15 99.03,462.26 ZM 306.81 429.37 C313.12,427.33 318.22,423.19 321.67,417.29 C323.76,413.73 324.44,411.04 324.79,405.00 C325.59,391.30 321.28,383.85 309.41,378.36 L 301.98 374.93 L 295.54 362.07 C285.42,341.88 282.56,330.58 286.57,326.57 C288.40,324.75 293.33,324.55 299.34,326.06 L 303.57 327.13 L 303.64 332.37 C303.76,340.77 308.72,348.64 316.50,352.76 C321.11,355.21 331.54,354.94 336.65,352.25 C353.03,343.62 353.01,320.34 336.62,311.75 C331.76,309.20 322.28,308.78 317.24,310.89 C314.12,312.19 313.89,312.13 311.83,309.37 C303.19,297.86 284.63,283.25 273.21,278.98 C252.82,271.35 231.71,275.51 214.08,290.65 C197.98,304.47 181.85,339.98 177.43,371.33 C176.99,374.48 176.19,376.34 175.12,376.67 C166.99,379.25 161.22,383.81 157.69,390.43 C154.56,396.32 154.58,409.80 157.74,415.50 C161.84,422.91 166.11,426.65 173.25,429.12 C178.10,430.79 183.25,430.94 240.14,430.97 C294.42,431.00 302.37,430.81 306.81,429.37 ZM 106.92 227.08 L 104.00 224.15 L 104.00 194.21 C104.00,165.71 104.10,164.15 106.02,161.71 C108.96,157.96 114.12,156.49 117.69,158.37 C119.23,159.19 133.21,172.62 148.75,188.22 C175.78,215.36 177.00,216.74 177.00,220.37 C177.00,223.22 176.28,224.88 174.08,227.08 L 171.15 230.00 L 109.85 230.00 ZM 135.61 164.07 C129.08,157.51 122.45,151.60 120.87,150.95 C119.29,150.29 118.00,149.41 118.00,148.98 C118.00,148.55 120.81,147.07 124.25,145.69 C132.87,142.23 151.70,134.38 169.00,127.04 C189.61,118.29 198.95,114.62 199.43,115.09 C199.66,115.32 199.58,124.37 199.27,135.21 L 198.70 154.90 L 194.60 156.52 C190.36,158.19 183.93,160.87 161.24,170.42 C153.95,173.49 147.87,176.00 147.73,176.00 C147.59,176.00 142.14,170.63 135.61,164.07 ZM 84.00 226.70 C84.00,214.58 84.36,209.04 85.20,208.20 C85.86,207.54 88.56,207.00 91.20,207.00 L 96.00 207.00 L 96.00 214.85 C96.00,223.94 97.23,228.35 100.89,232.37 C105.82,237.79 107.27,238.00 140.50,238.00 C174.00,238.00 175.48,237.78 180.21,232.16 C185.80,225.52 186.33,216.75 181.54,210.46 L 178.90 207.00 L 211.97 207.00 L 210.05 211.75 C208.99,214.36 206.02,221.23 203.46,227.00 C200.89,232.77 198.16,238.96 197.38,240.75 L 195.97 244.00 L 84.00 244.00 ZM 377.30 242.25 C377.60,241.29 381.11,232.96 385.10,223.75 L 392.36 207.00 L 404.60 207.00 C411.33,207.00 417.55,207.27 418.42,207.61 C419.78,208.13 420.00,210.71 420.00,226.11 L 420.00 244.00 L 398.38 244.00 C378.26,244.00 376.80,243.88 377.30,242.25 ZM 366.00 65.20 L 366.00 45.39 L 377.59 40.66 C383.96,38.05 389.97,36.17 390.94,36.48 C392.92,37.11 404.00,63.28 404.00,67.32 C404.00,69.48 402.22,70.45 385.56,77.36 C375.41,81.56 366.86,85.00 366.56,85.00 C366.25,85.00 366.00,76.09 366.00,65.20 ZM 239.57 137.24 C239.26,136.92 239.00,128.25 239.00,117.96 C239.00,103.85 239.32,98.98 240.30,98.17 C241.01,97.58 246.41,95.07 252.30,92.61 L 263.00 88.12 L 263.00 108.00 C263.00,118.94 262.60,128.13 262.10,128.44 C259.18,130.24 240.05,137.72 239.57,137.24 ZM 309.69 239.75 C310.61,237.41 314.14,229.20 317.54,221.50 L 323.72 207.50 L 336.36 207.22 C343.31,207.07 349.00,207.21 349.00,207.55 C349.00,207.89 345.91,215.21 342.14,223.83 C338.37,232.45 334.96,240.51 334.57,241.75 C333.89,243.93 333.47,244.00 320.94,244.00 L 308.02 244.00 ZM 240.28 241.75 C240.56,240.51 242.92,234.77 245.51,229.00 C248.10,223.23 251.26,216.02 252.52,213.00 L 254.81 207.50 L 267.41 207.22 C274.43,207.06 280.00,207.34 280.00,207.84 C280.00,208.34 276.62,216.54 272.50,226.07 C268.38,235.59 265.00,243.53 265.00,243.69 C265.00,243.86 259.32,244.00 252.38,244.00 C239.81,244.00 239.77,243.99 240.28,241.75 ZM 302.35 105.75 C302.70,102.86 302.99,93.94 302.99,85.92 L 303.00 71.34 L 314.63 66.64 C321.03,64.05 326.35,62.06 326.45,62.22 C326.55,62.37 326.38,71.46 326.07,82.41 L 325.50 102.32 L 315.00 106.65 C309.23,109.04 303.87,110.99 303.11,110.99 C302.02,111.00 301.86,109.87 302.35,105.75 ZM 94.58 195.07 C94.07,194.28 91.06,187.31 87.88,179.57 C81.16,163.19 81.19,162.97 90.57,159.37 C98.43,156.36 99.44,156.35 97.79,159.25 C96.94,160.74 96.33,167.43 96.00,179.00 C95.68,190.22 95.17,195.99 94.58,195.07 ZM 166.23 218.60 C167.48,216.74 167.08,213.75 165.35,211.83 C161.19,207.24 153.31,212.00 155.85,217.57 C157.82,221.89 163.65,222.46 166.23,218.60 ZM 118.43 174.67 C120.99,172.80 120.76,168.04 118.01,165.81 C115.14,163.48 113.47,163.53 111.00,166.00 C105.73,171.27 112.41,179.07 118.43,174.67 ZM 119.00 219.50 C119.69,218.67 120.25,216.87 120.25,215.50 C120.25,214.13 119.69,212.33 119.00,211.50 C116.22,208.15 109.00,210.91 109.00,215.33 C109.00,220.04 116.10,223.00 119.00,219.50 Z" fill="rgb(77,81,82)"/>
<path d="M 185.63 375.22 C185.37,374.79 185.78,371.15 186.54,367.13 C194.52,325.25 213.40,294.95 236.89,286.30 C243.38,283.91 245.97,283.51 254.50,283.54 C265.88,283.58 271.84,285.49 282.51,292.52 C290.57,297.84 308.25,315.50 307.78,317.77 C307.55,318.86 306.70,319.37 305.46,319.15 C304.38,318.96 299.69,318.57 295.03,318.29 C285.42,317.71 281.59,319.04 278.68,323.96 C274.77,330.58 277.97,344.73 287.71,363.93 C290.62,369.67 293.00,374.74 293.00,375.18 C293.00,376.23 186.28,376.26 185.63,375.22 Z" fill="rgb(240,67,80)"/>
<path d="M 0.00 250.00 L 0.00 0.00 L 250.00 0.00 L 500.00 0.00 L 500.00 250.00 L 500.00 500.00 L 250.00 500.00 L 0.00 500.00 L 0.00 250.00 ZM 411.50 467.61 C417.42,464.80 423.20,459.06 425.70,453.50 C427.40,449.73 427.52,442.55 427.78,330.00 C427.94,264.27 427.83,209.52 427.53,208.33 C427.24,207.13 425.84,204.77 424.41,203.08 L 421.82 200.00 L 296.64 200.00 L 171.46 200.00 L 162.54 191.04 L 153.63 182.08 L 160.41 179.04 C164.14,177.37 167.39,176.00 167.64,176.00 C167.89,176.00 178.08,171.78 190.30,166.63 C202.51,161.48 223.75,152.64 237.50,146.99 C251.25,141.34 274.88,131.55 290.00,125.24 C305.12,118.93 326.27,110.18 337.00,105.79 C400.59,79.78 406.25,77.29 409.36,73.86 C411.86,71.12 412.17,70.12 411.76,66.11 C411.50,63.57 408.47,54.84 405.02,46.71 C398.29,30.85 396.72,29.00 390.02,29.00 C387.06,29.00 370.16,35.72 317.00,58.04 C303.52,63.70 281.25,72.91 267.50,78.51 C253.75,84.11 224.95,95.99 203.50,104.93 C182.05,113.86 146.05,128.81 123.50,138.16 C100.95,147.51 81.45,155.83 80.17,156.66 C76.84,158.80 74.95,163.86 75.92,168.07 C76.35,169.95 78.85,176.68 81.46,183.00 C84.07,189.32 86.60,195.52 87.08,196.77 C87.86,198.77 87.52,199.21 84.04,200.60 C76.41,203.65 77.00,193.01 77.01,328.21 L 77.02 449.50 L 79.38 454.50 C82.23,460.52 85.93,464.16 92.55,467.44 L 97.50 469.89 L 252.00 469.94 L 406.50 469.98 L 411.50 467.61 ZM 174.46 421.12 C166.73,417.61 162.38,409.78 163.23,400.91 C163.83,394.70 167.78,388.67 172.96,386.02 C176.81,384.06 178.69,384.00 240.40,384.00 C282.93,384.00 304.80,384.35 306.68,385.07 C313.18,387.53 317.94,395.12 317.98,403.07 C318.01,410.05 313.65,417.83 308.09,420.71 L 303.69 423.00 L 241.09 422.98 C182.53,422.96 178.24,422.84 174.46,421.12 ZM 319.41 345.17 C313.84,341.67 312.00,338.36 312.00,331.90 C312.00,326.83 312.40,325.62 315.05,322.60 C320.95,315.88 330.55,315.23 336.64,321.14 C343.21,327.50 343.17,336.54 336.55,342.95 C332.08,347.28 324.36,348.28 319.41,345.17 ZM 205.00 243.77 C205.00,243.61 208.58,235.39 212.95,225.49 L 220.89 207.50 L 233.91 207.22 L 246.94 206.94 L 244.03 213.72 C242.43,217.45 238.89,225.68 236.15,232.00 L 231.19 243.50 L 218.09 243.78 C210.89,243.93 205.00,243.93 205.00,243.77 ZM 274.44 242.25 C274.81,241.29 278.34,232.96 282.30,223.75 L 289.49 207.00 L 302.67 207.00 L 315.84 207.00 L 310.35 219.25 C307.33,225.99 303.68,234.31 302.25,237.75 L 299.65 244.00 L 286.72 244.00 C274.82,244.00 273.84,243.86 274.44,242.25 ZM 343.00 243.13 C343.00,242.62 346.44,234.28 350.64,224.60 L 358.28 207.00 L 371.25 207.00 C381.24,207.00 384.09,207.29 383.68,208.25 C383.39,208.94 379.80,217.15 375.72,226.50 L 368.29 243.50 L 355.64 243.78 C348.33,243.94 343.00,243.67 343.00,243.13 ZM 207.34 139.75 C207.70,133.56 207.99,124.63 208.00,119.91 C208.00,111.52 208.06,111.29 210.75,110.03 C215.12,107.98 230.41,102.00 231.28,102.00 C232.61,102.00 232.02,140.74 230.67,141.80 C229.07,143.06 209.42,151.00 207.91,151.00 C206.99,151.00 206.85,148.27 207.34,139.75 ZM 271.23 104.84 L 271.50 84.68 L 282.97 79.84 C289.28,77.18 294.57,75.00 294.74,75.00 C294.91,75.00 294.92,84.09 294.77,95.21 L 294.50 115.42 L 283.50 120.13 C277.45,122.73 272.15,124.88 271.73,124.92 C271.31,124.97 271.08,115.93 271.23,104.84 ZM 334.60 98.26 C333.82,97.49 333.84,86.73 334.65,70.97 L 335.29 58.44 L 345.39 54.24 C350.95,51.92 356.29,49.75 357.25,49.41 C358.85,48.84 358.99,49.73 358.89,60.14 C358.84,66.39 358.50,75.52 358.14,80.44 L 357.50 89.37 L 348.00 93.50 C335.73,98.82 335.31,98.97 334.60,98.26 Z" fill="rgb(253,253,254)"/>
</g>
</svg>